<?xml version="1.0" standalone="no"?>
<!DOCTYPE svg PUBLIC "-//W3C//DTD SVG 20010904//EN"
 "http://www.w3.org/TR/2001/REC-SVG-20010904/DTD/svg10.dtd">
<svg version="1.0" xmlns="http://www.w3.org/2000/svg"
 width="197.000000pt" height="197.000000pt" viewBox="0 0 197.000000 197.000000"
 preserveAspectRatio="xMidYMid meet">
<metadata>
Created by potrace 1.11, written by Peter Selinger 2001-2013
</metadata>
<g transform="translate(0.000000,197.000000) scale(0.100000,-0.100000)"
fill="#000000" stroke="none">
<path d="M138 1403 c-3 -4 -4 -125 -3 -268 1 -254 10 -335 36 -335 6 0 7 -4 4
-10 -3 -5 -2 -10 3 -10 4 0 18 -9 30 -20 12 -11 24 -20 27 -20 30 1 35 -1 29
-12 -6 -10 -4 -10 8 0 13 10 17 10 21 0 4 -10 6 -10 6 1 1 10 4 11 15 2 11 -9
16 -9 21 0 6 8 10 7 16 -2 8 -12 10 -12 18 0 6 9 10 10 16 2 5 -9 10 -9 21 0
11 9 14 9 14 -1 0 -9 4 -9 17 1 15 12 16 12 8 -1 -7 -13 -6 -13 7 -2 13 10 17
10 21 0 4 -10 7 -10 15 1 7 9 12 10 16 2 5 -8 13 -8 26 -1 13 7 20 6 23 -3 3
-9 7 -9 19 1 13 10 17 10 22 0 5 -11 7 -11 12 0 5 10 9 10 22 0 12 -10 14 -10
8 0 -4 6 -2 12 3 12 6 0 11 -6 11 -12 0 -10 2 -10 9 0 4 8 11 13 15 13 32 -5
56 1 50 11 -4 6 -3 8 4 4 12 -7 62 35 62 53 0 6 4 11 9 11 5 0 9 12 9 26 0 15
6 30 13 35 8 5 9 9 3 9 -10 0 -12 54 -4 85 2 6 0 18 -5 29 -5 12 -3 21 6 27
10 6 10 9 2 9 -7 0 -13 5 -13 11 0 5 5 7 12 3 7 -5 8 -3 2 7 -13 21 -13 119 0
111 6 -3 5 2 -3 11 -10 13 -11 20 -2 31 8 10 9 16 1 21 -5 3 -10 11 -10 16 0
6 6 7 13 3 8 -5 8 -2 -2 9 -10 13 -11 20 -2 31 8 10 9 16 1 21 -5 3 -10 11
-10 16 0 6 6 7 13 3 8 -5 8 -2 -2 9 -11 14 -11 20 0 34 10 11 10 14 2 9 -8 -4
-13 -1 -13 8 0 13 -13 16 -65 16 l-65 0 -1 -62 c0 -35 0 -89 1 -122 l2 -58
-25 23 c-16 16 -21 28 -15 36 6 7 5 14 -2 18 -8 5 -8 11 1 21 9 11 8 14 -4 14
-11 0 -14 6 -10 16 15 38 -86 103 -157 99 -61 -3 -62 -3 -54 -17 4 -7 4 -10
-1 -6 -27 25 -100 -65 -93 -115 1 -12 -2 -28 -6 -36 -6 -10 -5 -12 2 -7 27 17
9 -12 -20 -34 -18 -13 -30 -20 -26 -16 4 5 3 19 -2 32 -5 13 -6 24 -2 24 4 0
6 16 4 36 -4 29 -2 35 9 28 11 -6 12 -5 2 7 -6 8 -13 37 -15 64 l-3 50 -62 3
c-34 2 -63 -1 -65 -5z m243 -268 c5 4 9 -2 9 -12 0 -15 2 -16 10 -3 7 11 10
11 10 2 0 -7 5 -10 10 -7 6 3 10 2 10 -3 0 -15 28 -23 36 -10 5 7 2 8 -6 3 -8
-5 -11 -4 -6 3 4 6 13 9 22 5 12 -4 12 -8 2 -22 -10 -13 -9 -13 8 1 16 14 23
15 34 5 8 -7 10 -8 7 -1 -4 7 1 18 10 25 12 10 14 10 9 2 -4 -8 -1 -13 9 -13
9 0 14 3 12 8 -3 4 1 13 9 20 11 10 13 7 10 -18 -2 -17 0 -33 5 -36 5 -3 9 0
9 7 0 7 3 10 6 6 3 -3 3 -11 -1 -17 -5 -8 -10 -8 -20 0 -10 9 -16 7 -24 -8 -6
-11 -7 -23 -3 -27 4 -4 -4 -4 -17 0 -16 5 -26 3 -32 -6 -7 -11 -11 -12 -17 -1
-5 8 -16 10 -28 6 -10 -4 -16 -3 -11 1 12 14 -24 47 -38 35 -18 -15 -42 -2
-57 31 -7 16 -17 29 -23 29 -5 0 -3 5 5 10 10 6 17 5 23 -6 5 -8 12 -12 18 -9z
m252 -45 c3 -11 1 -18 -4 -14 -5 3 -9 12 -9 20 0 20 7 17 13 -6z m-269 -52 c4
2 12 2 19 -1 9 -3 8 -8 -2 -21 -14 -16 -16 -16 -28 7 -9 19 -19 24 -35 20 -22
-4 -23 -4 -4 11 11 9 16 16 12 16 -4 0 -4 5 0 12 5 8 12 2 20 -17 7 -17 15
-29 18 -27z m168 -37 c-1 -6 4 -14 12 -17 8 -3 12 -13 9 -24 -3 -11 -2 -28 2
-37 3 -10 6 -20 5 -22 -1 -2 4 -8 12 -13 8 -5 -14 -8 -58 -7 -64 2 -71 4 -66
21 2 10 9 21 15 25 6 4 7 1 2 -7 -5 -9 -4 -11 3 -6 9 5 7 15 -6 34 -9 14 -12
23 -5 19 7 -5 13 1 15 15 2 15 9 22 21 22 9 -1 17 3 17 8 0 5 6 8 13 5 6 -2
11 -10 9 -16z m-208 -32 c-20 -22 -12 -38 10 -20 13 11 14 7 10 -28 -4 -33 -2
-41 12 -41 10 0 14 5 10 16 -3 8 -2 12 4 9 6 -3 10 -1 10 5 0 6 5 8 10 5 6 -3
10 -15 10 -26 0 -13 -7 -19 -22 -19 -44 0 -98 13 -92 21 3 5 1 9 -5 9 -5 0 -9
14 -9 30 1 17 6 30 12 30 6 0 17 9 24 20 7 12 17 18 23 14 6 -4 4 -13 -7 -25z
m356 -45 c0 -8 -4 -12 -10 -9 -5 3 -10 13 -10 21 0 8 5 12 10 9 6 -3 10 -13
10 -21z m-30 -34 c0 -5 -4 -10 -10 -10 -5 0 -10 5 -10 10 0 6 5 10 10 10 6 0
10 -4 10 -10z"/>
<path d="M849 1393 c-9 -38 -1 -510 9 -533 5 -14 11 -29 12 -35 4 -12 76 -66
93 -69 6 -1 17 -5 24 -9 6 -4 15 -3 18 3 4 7 11 8 18 2 7 -5 32 -9 57 -7 25 1
53 -3 64 -8 13 -6 16 -6 12 2 -5 7 1 11 14 11 14 0 19 -4 14 -12 -6 -10 -4
-10 7 -2 16 12 149 11 169 -1 8 -5 11 -4 6 3 -7 12 44 9 65 -4 8 -4 9 -3 5 4
-4 7 -1 12 9 12 9 0 13 -5 9 -11 -4 -8 -1 -8 12 -1 24 13 27 13 64 2 17 -5 28
-5 25 -1 -2 5 6 8 20 9 15 0 22 -5 18 -12 -3 -6 4 -2 17 9 13 11 20 15 17 8
-4 -6 -3 -15 3 -18 6 -4 9 -3 8 2 -1 4 3 18 10 31 7 12 9 22 5 22 -4 0 -2 4 6
9 8 5 10 14 5 22 -4 8 -9 22 -9 32 -4 43 -24 46 -328 45 -238 0 -291 2 -303
14 -16 16 -26 88 -12 88 5 0 4 9 -2 20 -8 15 -8 20 1 20 8 0 8 5 -2 16 -10 13
-10 17 2 25 12 8 12 10 -1 19 -13 9 -13 10 0 10 13 0 13 1 0 10 -13 9 -13 10
0 10 13 0 13 1 0 10 -12 8 -12 10 -1 10 11 0 11 3 1 15 -7 8 -9 15 -4 15 9 0
10 80 1 103 -2 6 -1 21 3 32 4 11 4 30 -1 43 -6 14 -5 22 2 22 8 0 7 5 -1 15
-9 11 -33 15 -85 15 -61 0 -73 -3 -76 -17z"/>
<path d="M1104 1390 c-45 -29 -58 -69 -59 -179 -1 -150 12 -188 75 -222 14 -7
31 -12 38 -11 6 2 12 -2 12 -9 0 -6 6 -9 14 -6 7 3 30 2 50 -3 25 -5 36 -4 36
4 0 6 5 4 10 -4 5 -8 10 -10 10 -4 0 8 13 9 40 4 22 -4 40 -3 40 1 0 5 5 9 11
9 5 0 8 -4 5 -8 -3 -5 1 -9 9 -9 8 0 15 4 15 9 0 4 5 8 11 8 5 0 8 -3 6 -7 -3
-5 15 -8 39 -8 24 0 44 5 44 10 0 6 5 3 10 -5 5 -8 10 -10 10 -5 0 10 70 9
117 -1 12 -2 33 -16 46 -30 31 -33 37 -129 11 -169 -35 -54 -17 -53 -739 -54
-369 0 -699 -1 -735 -1 l-66 0 4 -40 c3 -26 -2 -49 -12 -65 -20 -31 -20 -35 2
-35 14 0 15 -2 2 -10 -11 -7 -9 -8 11 -6 13 1 30 6 37 10 7 4 12 3 12 -2 0 -5
10 -8 22 -6 13 1 23 3 23 4 0 1 19 2 42 3 24 2 43 -1 43 -6 0 -4 9 -3 20 3 14
8 20 8 20 0 0 -8 6 -8 20 0 14 8 20 8 20 0 0 -7 6 -8 19 0 14 7 21 6 24 -3 4
-9 7 -9 14 0 5 7 14 9 23 3 8 -5 22 -4 33 2 11 5 22 6 26 2 8 -12 34 -11 44 1
6 6 10 6 14 -2 2 -7 9 -13 14 -13 6 0 7 5 3 11 -5 8 -1 8 14 0 14 -7 23 -8 27
-1 4 7 12 7 25 0 13 -7 20 -6 23 3 4 9 8 9 15 -2 8 -10 14 -11 32 -1 18 10 24
9 31 -1 7 -11 9 -11 9 1 0 13 1 13 10 0 9 -13 10 -13 10 0 0 13 1 13 10 0 9
-13 10 -13 10 0 0 13 1 13 10 0 9 -13 10 -13 10 0 0 13 1 13 10 0 9 -13 10
-13 10 0 0 12 2 13 9 1 7 -11 9 -11 14 0 5 12 6 12 6 0 1 -11 4 -11 18 0 11
10 14 10 9 2 -4 -7 -3 -13 3 -13 5 0 12 6 14 13 4 9 8 9 15 -2 8 -11 10 -11
15 0 5 12 6 12 6 0 1 -11 4 -11 18 0 15 12 16 12 8 -1 -8 -13 -7 -13 8 -1 12
9 17 10 17 2 0 -9 5 -9 21 0 16 8 23 8 29 -1 6 -9 9 -9 13 1 5 12 6 12 6 0 1
-11 4 -11 18 0 15 12 16 12 8 -1 -8 -13 -7 -13 8 -1 12 9 17 10 17 2 0 -9 5
-9 21 0 17 8 23 8 29 -1 5 -8 13 -9 21 -4 17 10 59 15 59 5 0 -3 9 -7 20 -7
11 0 20 3 20 6 0 4 7 7 15 7 8 0 15 -4 15 -9 0 -5 10 -3 22 3 16 9 23 9 26 1
2 -8 10 -9 20 -3 9 5 26 5 37 1 11 -4 29 -3 40 3 13 7 20 7 23 -2 2 -6 8 -11
13 -11 6 0 8 3 6 8 -3 4 6 8 19 8 13 1 24 -2 24 -7 0 -5 12 -4 27 2 19 7 28 6
33 -2 6 -8 9 -7 13 2 5 12 6 12 6 0 1 -11 6 -10 25 3 17 10 27 12 31 5 4 -6
12 -3 22 8 9 11 12 12 8 3 -3 -8 2 -5 11 7 9 13 23 23 30 23 8 0 14 5 14 11 0
7 8 18 18 26 10 9 11 11 2 7 -13 -7 -13 -5 0 12 8 10 21 30 28 43 11 19 11 22
0 15 -11 -6 -11 -5 0 9 8 9 11 21 7 27 -3 5 -2 10 4 10 5 0 8 8 6 18 -1 9 2
25 7 36 6 10 6 21 2 25 -13 9 -15 31 -3 31 6 0 3 8 -7 17 -11 12 -13 18 -5 21
8 3 6 9 -6 19 -17 14 -17 14 1 9 16 -5 17 -4 7 8 -7 8 -9 21 -5 27 4 8 3 9 -4
5 -7 -4 -12 -1 -12 7 0 50 -78 132 -137 145 -21 4 -143 8 -272 7 -248 0 -269
3 -258 46 3 11 0 19 -6 19 -8 0 -8 3 0 11 6 6 9 18 6 27 -4 10 -2 13 6 8 6 -4
18 -2 26 4 12 10 19 10 32 -1 9 -8 14 -9 10 -3 -4 7 2 12 18 12 14 0 25 -6 25
-12 0 -8 2 -8 8 0 9 14 184 14 194 0 5 -8 8 -8 8 -1 0 7 39 11 105 11 65 0
102 -3 98 -9 -4 -6 -1 -7 8 -1 22 13 42 14 58 1 12 -9 13 -9 7 1 -4 8 -1 12
10 12 11 0 15 6 11 20 -3 11 -1 20 3 20 4 0 6 10 2 22 -3 14 -1 19 6 14 8 -5
10 -2 6 8 -3 9 -1 16 6 16 6 0 8 5 5 10 -3 6 -2 10 3 10 5 0 9 7 9 15 0 13
-48 15 -366 15 -350 0 -367 -1 -397 -20z"/>
</g>
</svg>
