<?xml version="1.0" encoding="iso-8859-1"?>
<!-- Generator: Adobe Illustrator 16.0.0, SVG Export Plug-In . SVG Version: 6.00 Build 0)  -->
<!DOCTYPE svg PUBLIC "-//W3C//DTD SVG 1.1//EN" "http://www.w3.org/Graphics/SVG/1.1/DTD/svg11.dtd">
<svg version="1.1" id="Capa_1" xmlns="http://www.w3.org/2000/svg" xmlns:xlink="http://www.w3.org/1999/xlink" x="0px" y="0px"
	 width="465.65px" height="465.65px" viewBox="0 0 465.65 465.65" style="enable-background:new 0 0 465.65 465.65;"
	 xml:space="preserve">
<g>
	<path d="M230.459,232.825c-32.695,0-59.194-26.5-59.194-59.194s26.5-59.194,59.194-59.194c32.694,0,59.193,26.5,59.193,59.194
		C289.652,206.319,263.153,232.825,230.459,232.825z M138.38,318.328v26.309h184.164v-26.309c0-36.326-29.443-65.77-65.77-65.77
		h-52.618C167.824,252.553,138.38,282.002,138.38,318.328z M434.316,124.27C394.407,49.457,315.976,1.85,230.459,1.85
		c-90.508,0-173.128,53.285-210.494,135.755c-3.876,8.547-0.082,18.618,8.473,22.501c8.541,3.856,18.619,0.088,22.501-8.473
		C82.804,81.301,153.265,35.856,230.459,35.856c72.202,0,138.502,39.773,172.855,102.469l-30.308,13.729l82.661,59.242
		l9.982-101.211L434.316,124.27z M429.617,313.059c-8.398-4.209-18.611-0.775-22.808,7.615
		c-33.599,67.307-101.177,109.127-176.357,109.127c-70.204,0-133.75-36.482-169.218-96.117l29.777-14.859L6.195,262.711L0,364.229
		l30.756-15.342c41.324,71.23,116.518,114.914,199.696,114.914c88.148,0,167.382-49.027,206.774-127.941
		C441.429,327.453,438.016,317.248,429.617,313.059z"/>
</g>
<g>
</g>
<g>
</g>
<g>
</g>
<g>
</g>
<g>
</g>
<g>
</g>
<g>
</g>
<g>
</g>
<g>
</g>
<g>
</g>
<g>
</g>
<g>
</g>
<g>
</g>
<g>
</g>
<g>
</g>
</svg>
